<?xml version="1.0" encoding="UTF-8" standalone="no"?>
<svg
   xmlns:dc="http://purl.org/dc/elements/1.1/"
   xmlns:cc="http://creativecommons.org/ns#"
   xmlns:rdf="http://www.w3.org/1999/02/22-rdf-syntax-ns#"
   xmlns:svg="http://www.w3.org/2000/svg"
   xmlns="http://www.w3.org/2000/svg"
   xmlns:sodipodi="http://sodipodi.sourceforge.net/DTD/sodipodi-0.dtd"
   xmlns:inkscape="http://www.inkscape.org/namespaces/inkscape"
   id="svg68"
   xml:space="preserve"
   enable-background="new 0 0 320 120"
   viewBox="0 0 320 180"
   height="180"
   width="320"
   y="0px"
   x="0px"
   version="1.1"
   sodipodi:docname="pmzg.svg"
   inkscape:version="0.92.3 (2405546, 2018-03-11)"><sodipodi:namedview
   pagecolor="#ffffff"
   bordercolor="#666666"
   borderopacity="1"
   objecttolerance="10"
   gridtolerance="10"
   guidetolerance="10"
   inkscape:pageopacity="0"
   inkscape:pageshadow="2"
   inkscape:window-width="2556"
   inkscape:window-height="1346"
   id="namedview64"
   showgrid="false"
   inkscape:zoom="5.2545455"
   inkscape:cx="159.80969"
   inkscape:cy="90"
   inkscape:window-x="0"
   inkscape:window-y="60"
   inkscape:window-maximized="0"
   inkscape:current-layer="svg68"
   fit-margin-top="30"
   fit-margin-left="0"
   fit-margin-right="0"
   fit-margin-bottom="30" /><metadata
   id="metadata74"><rdf:RDF><cc:Work
       rdf:about=""><dc:format>image/svg+xml</dc:format><dc:type
         rdf:resource="http://purl.org/dc/dcmitype/StillImage" /><dc:title></dc:title></cc:Work></rdf:RDF></metadata><defs
   id="defs72" />
<g
   id="Layer_1"
   transform="translate(0,30)">
	<rect
   style="fill:#993366"
   y="0"
   x="0"
   id="rect62"
   height="120"
   width="320" />
</g>
<g
   transform="translate(-17.982439,36.093784)"
   id="Layer_2">
	<g
   aria-label="#PMZG"
   transform="translate(42.6133,80.1152)"
   style="font-size:72px;font-family:GillSansMT;fill:#ffffff"
   id="text65"><path
     d="M 36.808594,-31.675781 H 26.578125 L 23.625,-19.933594 h 10.300781 z m -5.273438,-20.003906 -3.65625,14.589843 h 10.265625 l 3.691406,-14.589843 h 5.625 l -3.621093,14.589843 h 10.96875 v 5.414063 H 42.46875 l -2.882813,11.742187 h 11.179688 v 5.378906 H 38.214844 L 34.558594,0 h -5.625 l 3.621093,-14.554688 H 22.253906 L 18.632812,0 h -5.660156 l 3.65625,-14.554688 H 5.5546875 v -5.378906 H 17.929687 l 2.953125,-11.742187 H 9.5625 v -5.414063 h 12.691406 l 3.585938,-14.589843 z"
     style="font-size:72px;font-family:GillSansMT;fill:#ffffff"
     id="path66"
     inkscape:connector-curvature="0" /><path
     d="m 74.496094,-46.652344 v 19.722657 h 8.929687 q 4.957031,0 7.664063,-2.566407 2.707031,-2.566406 2.707031,-7.3125 0,-4.710937 -2.707031,-7.277343 -2.707032,-2.566407 -7.664063,-2.566407 z m -7.101563,-5.835937 h 16.03125 q 8.824219,0 13.324219,4.007812 4.53516,3.972657 4.53516,11.671875 0,7.769532 -4.53516,11.742188 -4.5,3.972656 -13.324219,3.972656 H 74.496094 V 0 h -7.101563 z"
     style="font-size:72px;font-family:GillSansMT;fill:#ffffff"
     id="path68"
     inkscape:connector-curvature="0" /><path
     d="m 110.84766,-52.488281 h 10.58203 l 13.39453,35.71875 13.46484,-35.71875 h 10.58203 V 0 h -6.92578 v -46.089844 l -13.53515,36 h -7.13672 l -13.53516,-36 V 0 h -6.89062 z"
     style="font-size:72px;font-family:GillSansMT;fill:#ffffff"
     id="path70"
     inkscape:connector-curvature="0" /><path
     d="m 169.98047,-52.488281 h 41.23828 v 5.414062 l -33.1875,41.0976565 h 33.99609 V 0 h -42.85547 v -5.4140625 l 33.1875,-41.0976565 h -32.3789 z"
     style="font-size:72px;font-family:GillSansMT;fill:#ffffff"
     id="path72"
     inkscape:connector-curvature="0" /><path
     d="M 258.15234,-7.4882812 V -21.585937 h -11.60156 v -5.835938 h 18.63281 v 22.5351563 q -4.11328,2.9179687 -9.07031,4.42968745 -4.95703,1.47656245 -10.58203,1.47656245 -12.30469,0 -19.26563,-7.1718749 -6.92578,-7.2070313 -6.92578,-20.0390623 0,-12.867188 6.92578,-20.039063 6.96094,-7.207031 19.26563,-7.207031 5.13281,0 9.73828,1.265625 4.64063,1.265625 8.54297,3.726563 v 7.558593 q -3.9375,-3.339843 -8.36719,-5.027343 -4.42969,-1.6875 -9.3164,-1.6875 -9.63282,0 -14.48438,5.378906 -4.81641,5.378906 -4.81641,16.03125 0,10.617187 4.81641,15.996093 4.85156,5.3789068 14.48438,5.3789068 3.76171,0 6.71484,-0.6328125 2.95312,-0.6679688 5.30859,-2.0390625 z"
     style="font-size:72px;font-family:GillSansMT;fill:#ffffff"
     id="path74"
     inkscape:connector-curvature="0" /></g>

</g>
</svg>