<?xml version="1.0" encoding="UTF-8" standalone="no"?>
<svg width="1092px" height="151px" viewBox="0 0 1092 151" version="1.1" xmlns="http://www.w3.org/2000/svg" xmlns:xlink="http://www.w3.org/1999/xlink" xmlns:sketch="http://www.bohemiancoding.com/sketch/ns">
    <!-- Generator: Sketch 3.3.3 (12072) - http://www.bohemiancoding.com/sketch -->
    <title>infinum_logo</title>
    <desc>Created with Sketch.</desc>
    <defs></defs>
    <g id="Page-1" stroke="none" stroke-width="1" fill="none" fill-rule="evenodd" sketch:type="MSPage">
        <g id="infinum_logo" sketch:type="MSLayerGroup" transform="translate(0.000000, -1.000000)">
            <path d="M376.776,137.773 C376.234,138.252 375.068,138.492 373.275,138.492 L354.237,138.492 C352.799,138.492 351.75,138.224 351.096,137.685 C350.438,137.146 350.105,136.157 350.105,134.714 L350.105,16.306 C350.105,14.862 350.438,13.879 351.096,13.337 C351.75,12.795 352.799,12.527 354.237,12.527 L373.275,12.527 C375.068,12.527 376.234,12.77 376.776,13.246 C377.314,13.728 377.583,14.745 377.583,16.306 L377.583,134.714 C377.583,136.276 377.314,137.301 376.776,137.773 Z M433.965,60.213 L433.965,134.711 C433.965,136.28 433.694,137.298 433.155,137.773 C432.613,138.255 431.51,138.488 429.833,138.488 L410.976,138.488 C409.541,138.488 408.491,138.221 407.837,137.682 C407.179,137.143 406.85,136.157 406.85,134.711 L406.85,24.942 C406.85,20.263 407.688,16.995 409.359,15.137 C411.037,13.277 414.091,12.345 418.521,12.345 L426.067,12.345 C427.857,12.345 429.387,12.436 430.646,12.619 C431.901,12.795 433.004,13.186 433.965,13.788 C434.924,14.387 435.821,15.225 436.656,16.302 C437.496,17.39 438.457,18.767 439.531,20.446 L470.057,67.051 L485.501,91.348 L486.399,91.348 L486.399,16.126 C486.399,14.686 486.667,13.696 487.203,13.154 C487.745,12.619 488.848,12.345 490.527,12.345 L509.389,12.345 C512.127,12.345 513.51,13.605 513.51,16.126 L513.51,126.077 C513.51,129.918 512.735,132.946 511.175,135.164 C509.625,137.389 506.515,138.488 501.842,138.488 L494.299,138.488 C492.503,138.488 490.978,138.403 489.717,138.221 C488.463,138.048 487.351,137.653 486.399,137.058 C485.441,136.453 484.543,135.646 483.706,134.629 C482.87,133.608 481.913,132.259 480.835,130.573 L452.105,87.031 L434.866,60.213 L433.965,60.213 Z M567.031,137.868 C566.556,138.29 565.415,138.488 563.619,138.488 L544.587,138.488 C543.145,138.488 542.098,138.221 541.443,137.682 C540.781,137.143 540.454,136.157 540.454,134.714 L540.454,45.641 C540.454,41.317 541.014,37.184 542.161,33.22 C543.296,29.262 545.155,25.724 547.726,22.604 C550.3,19.484 553.678,16.999 557.872,15.137 C562.063,13.277 567.271,12.348 573.5,12.348 L619.491,12.348 C621.044,12.348 622.037,12.647 622.459,13.249 C622.875,13.845 623.08,14.988 623.08,16.665 L623.08,31.966 C623.08,33.522 622.815,34.571 622.276,35.11 C621.734,35.649 620.802,35.92 619.491,35.92 L579.424,35.92 C574.748,35.92 571.641,36.972 570.078,39.071 C568.528,41.166 567.747,43.835 567.747,47.077 L567.747,63.632 L612.307,63.632 C613.744,63.632 614.67,63.903 615.086,64.442 C615.508,64.98 615.723,66.15 615.723,67.952 L615.723,81.989 C615.723,83.43 615.477,84.478 614.998,85.137 C614.519,85.799 613.618,86.13 612.307,86.13 L567.747,86.13 L567.747,134.714 C567.747,136.396 567.507,137.445 567.031,137.868 Z M669.14,137.773 C668.604,138.252 667.442,138.492 665.64,138.492 L646.602,138.492 C645.165,138.492 644.116,138.224 643.463,137.685 C642.802,137.146 642.468,136.157 642.468,134.714 L642.468,16.306 C642.468,14.862 642.802,13.879 643.463,13.337 C644.116,12.795 645.165,12.527 646.602,12.527 L665.64,12.527 C667.442,12.527 668.604,12.77 669.14,13.246 C669.686,13.728 669.95,14.745 669.95,16.306 L669.95,134.714 C669.95,136.276 669.686,137.301 669.14,137.773 Z M726.339,60.213 L726.339,134.711 C726.339,136.28 726.065,137.298 725.526,137.773 C724.99,138.255 723.881,138.488 722.199,138.488 L703.347,138.488 C701.907,138.488 700.867,138.221 700.205,137.682 C699.543,137.143 699.219,136.157 699.219,134.711 L699.219,24.942 C699.219,20.263 700.054,16.995 701.73,15.137 C703.406,13.277 706.46,12.345 710.893,12.345 L718.437,12.345 C720.226,12.345 721.757,12.436 723.015,12.619 C724.266,12.795 725.375,13.186 726.339,13.788 C727.291,14.387 728.191,15.225 729.026,16.302 C729.865,17.39 730.826,18.767 731.9,20.446 L762.43,67.051 L777.869,91.348 L778.767,91.348 L778.767,16.126 C778.767,14.686 779.038,13.696 779.577,13.154 C780.109,12.619 781.225,12.345 782.898,12.345 L801.759,12.345 C804.5,12.345 805.887,13.605 805.887,16.126 L805.887,126.077 C805.887,129.918 805.105,132.946 803.549,135.164 C801.992,137.389 798.886,138.488 794.209,138.488 L786.673,138.488 C784.874,138.488 783.352,138.403 782.085,138.221 C780.831,138.048 779.722,137.653 778.767,137.058 C777.806,136.453 776.914,135.646 776.073,134.629 C775.235,133.608 774.283,132.259 773.206,130.573 L744.476,87.031 L727.234,60.213 L726.339,60.213 Z M934.64,121.042 C934.64,125.242 933.714,128.831 931.86,131.834 C930.005,134.833 926.561,136.992 921.535,138.315 C919.141,138.911 916.503,139.364 913.629,139.667 C910.759,139.963 907.889,140.174 905.005,140.294 C902.135,140.411 899.444,140.502 896.933,140.565 C894.415,140.619 892.374,140.65 890.823,140.65 C880.529,140.65 871.704,139.787 864.343,138.048 C856.982,136.305 850.961,133.34 846.288,129.14 C841.625,124.934 838.212,119.366 836.057,112.399 C833.898,105.441 832.824,96.686 832.824,86.13 L832.645,16.302 C832.645,14.865 833.004,13.876 833.716,13.334 C834.438,12.795 835.458,12.527 836.772,12.527 L855.993,12.527 C857.789,12.527 858.955,12.767 859.484,13.249 C860.032,13.725 860.303,14.749 860.303,16.302 L860.303,87.749 C860.303,92.665 860.719,96.953 861.554,100.614 C862.399,104.279 863.896,107.298 866.044,109.702 C868.2,112.102 871.095,113.867 874.757,115.011 C878.402,116.148 883.1,116.719 888.851,116.719 C889.686,116.719 890.823,116.687 892.257,116.631 C893.7,116.564 895.285,116.511 897.018,116.448 C898.757,116.391 900.55,116.271 902.409,116.092 C904.259,115.906 905.97,115.638 907.529,115.279 L907.529,16.302 C907.529,14.865 907.851,13.876 908.516,13.334 C909.171,12.795 910.22,12.527 911.657,12.527 L930.691,12.527 C932.484,12.527 933.594,12.767 934.01,13.249 C934.429,13.725 934.64,14.749 934.64,16.302 L934.64,121.042 Z M1065.02,65.974 L1063.94,65.974 L1056.57,82.708 L1041.66,115.817 C1040.35,118.94 1039,121.039 1037.63,122.113 C1036.25,123.197 1034.19,123.736 1031.44,123.736 L1021.56,123.736 C1018.56,123.736 1016.49,123.197 1015.36,122.113 C1014.22,121.039 1012.93,118.94 1011.5,115.817 L1000.36,92.425 L989.232,68.132 L988.155,68.132 L988.155,134.896 C988.155,136.576 987.853,137.594 987.257,137.959 C986.655,138.315 985.578,138.492 984.027,138.492 L965.708,138.492 C964.395,138.492 963.376,138.315 962.654,137.959 C961.939,137.594 961.58,136.576 961.58,134.896 L961.58,24.942 C961.58,20.386 962.443,17.146 964.183,15.225 C965.929,13.309 968.891,12.348 973.088,12.348 L983.523,12.348 C986.873,12.348 989.358,12.975 990.979,14.238 C992.592,15.495 994.126,17.682 995.569,20.805 L1015.17,64.713 L1026.31,90.267 L1027.03,90.267 L1039.26,62.192 L1057.6,21.161 C1059.04,17.925 1060.64,15.646 1062.37,14.323 C1064.1,13.006 1066.89,12.348 1070.73,12.348 L1079.54,12.348 C1083.38,12.348 1086.26,13.158 1088.17,14.774 C1090.09,16.393 1091.05,19.484 1091.05,24.041 L1091.05,134.896 C1091.05,136.576 1090.74,137.594 1090.15,137.959 C1089.54,138.315 1088.46,138.492 1086.89,138.492 L1068.99,138.492 C1067.67,138.492 1066.67,138.315 1066.01,137.959 C1065.35,137.594 1065.02,136.576 1065.02,134.896 L1065.02,65.974 Z" id="Fill-1" fill="#3B3B3A" sketch:type="MSShapeGroup"></path>
            <path d="M75.537,118.077 C98.652,118.077 117.227,96.969 132.102,78.788 C115.179,55.191 100.73,34.099 73.475,34.099 C51.18,34.099 35.095,51.473 35.095,77.534 C35.095,99.455 52.022,118.077 74.718,118.077 L75.537,118.077 L75.537,118.077 Z M300.946,75.054 C300.946,123.455 265.845,152 229.121,152 C205.577,152 179.58,142.896 150.677,103.599 C128.391,131.317 105.68,152 70.587,152 C33.847,152 0,122.211 0,77.124 C0,32.028 32.615,1.001 74.718,1.001 C107.741,1.001 128.75,19.217 150.625,48.164 C167.961,28.727 191.954,0.604 231.592,1.001 C269.979,1.414 300.946,29.961 300.946,74.635 L300.946,75.054 L300.946,75.054 Z M225.281,34.508 C202.166,34.508 183.591,55.616 168.716,73.8 C185.64,97.395 200.088,118.49 227.342,118.49 C249.638,118.49 265.722,101.115 265.722,75.054 C265.722,53.133 248.796,34.508 226.101,34.508 L225.281,34.508 L225.281,34.508 Z" id="Fill-9" fill="#D8262C" sketch:type="MSShapeGroup"></path>
        </g>
    </g>
</svg>