<?xml version="1.0" encoding="UTF-8" standalone="no"?>
<!-- Created with Inkscape (http://www.inkscape.org/) -->

<svg
   xmlns:dc="http://purl.org/dc/elements/1.1/"
   xmlns:cc="http://creativecommons.org/ns#"
   xmlns:rdf="http://www.w3.org/1999/02/22-rdf-syntax-ns#"
   xmlns:svg="http://www.w3.org/2000/svg"
   xmlns="http://www.w3.org/2000/svg"
   xmlns:sodipodi="http://sodipodi.sourceforge.net/DTD/sodipodi-0.dtd"
   xmlns:inkscape="http://www.inkscape.org/namespaces/inkscape"
   id="svg3336"
   version="1.1"
   inkscape:version="0.91 r13725"
   xml:space="preserve"
   width="342.40125"
   height="99.659264"
   viewBox="0 0 342.40125 99.659264"
   sodipodi:docname="M5_logo_monika.svg"><metadata
     id="metadata3342"><rdf:RDF><cc:Work
         rdf:about=""><dc:format>image/svg+xml</dc:format><dc:type
           rdf:resource="http://purl.org/dc/dcmitype/StillImage" /><dc:title></dc:title></cc:Work></rdf:RDF></metadata><defs
     id="defs3340"><clipPath
       clipPathUnits="userSpaceOnUse"
       id="clipPath3350"><path
         d="M 0,500 1000,500 1000,0 0,0 0,500 Z"
         id="path3352"
         inkscape:connector-curvature="0" /></clipPath></defs><sodipodi:namedview
     pagecolor="#ffffff"
     bordercolor="#666666"
     borderopacity="1"
     objecttolerance="10"
     gridtolerance="10"
     guidetolerance="10"
     inkscape:pageopacity="0"
     inkscape:pageshadow="2"
     inkscape:window-width="1920"
     inkscape:window-height="1137"
     id="namedview3338"
     showgrid="false"
     fit-margin-top="0"
     fit-margin-left="0"
     fit-margin-right="0"
     fit-margin-bottom="0"
     inkscape:zoom="1.436"
     inkscape:cx="171.20062"
     inkscape:cy="49.829633"
     inkscape:window-x="-8"
     inkscape:window-y="-8"
     inkscape:window-maximized="1"
     inkscape:current-layer="g3344" /><g
     id="g3344"
     inkscape:groupmode="layer"
     inkscape:label="M5_logo_monika"
     transform="matrix(1.25,0,0,-1.25,-453.79937,362.32963)"><g
       id="g3346"><g
         id="g3348"
         clip-path="url(#clipPath3350)"><g
           id="g3354"
           transform="translate(465.7648,280.5137)"><path
             d="m 0,0 c -0.005,-5.148 -4.188,-9.329 -9.345,-9.325 -5.158,0 -9.333,4.181 -9.329,9.341 0,5.166 4.189,9.337 9.342,9.334 C -4.177,9.345 0,5.164 0,0"
             style="fill:#000000;fill-opacity:1;fill-rule:nonzero;stroke:none"
             id="path3356"
             inkscape:connector-curvature="0" /></g><g
           id="g3358"
           transform="translate(517.215,248.4576)"><path
             d="m 0,0 -0.022,-31.599 -18.489,0.017 0.027,34.499 c 0,2.479 -0.541,5.915 -9.026,5.924 -2.147,0 -3.751,-0.211 -5.368,-0.642 l -0.032,-39.759 -18.493,0.002 0.035,47.937 c 0.423,0.212 12.049,6.444 26.661,6.43 C -9.548,22.795 0.017,14.293 0,0"
             style="fill:#000000;fill-opacity:1;fill-rule:nonzero;stroke:none"
             id="path3360"
             inkscape:connector-curvature="0" /></g><g
           id="g3362"
           transform="translate(529.4758,232.9557)"><path
             d="M 0,0 0.021,31.847 18.51,31.828 18.484,-2.917 c 0,-2.48 0.541,-5.915 9.025,-5.922 2.149,0 3.753,0.211 5.37,0.64 l 0.03,40.08 18.494,0.005 -0.035,-48.264 C 50.945,-16.591 39.319,-22.823 24.707,-22.81 9.548,-22.796 -0.018,-14.293 0,0"
             style="fill:#000000;fill-opacity:1;fill-rule:nonzero;stroke:none"
             id="path3364"
             inkscape:connector-curvature="0" /></g><g
           id="g3366"
           transform="translate(422.6545,271.2667)"><path
             d="m 0,0 c -7.448,0.007 -14.116,-1.609 -18.925,-3.223 -3.826,2.091 -8.556,3.218 -14.029,3.223 -14.612,0.014 -26.237,-6.218 -26.661,-6.43 l 0.001,-47.937 18.458,-0.002 0.031,39.759 c 1.617,0.431 3.221,0.642 5.369,0.642 8.484,-0.009 9.025,-3.445 9.025,-5.924 l -0.026,-34.499 10.589,0.015 7.964,-0.007 0.032,39.773 c 1.617,0.431 3.222,0.642 5.37,0.642 8.483,-0.009 9.024,-3.445 9.024,-5.924 l -0.026,-34.473 18.489,-0.004 0.022,31.56 C 24.724,-8.516 15.158,-0.014 0,0"
             style="fill:#000000;fill-opacity:1;fill-rule:nonzero;stroke:none"
             id="path3368"
             inkscape:connector-curvature="0" /></g><g
           id="g3370"
           transform="translate(636.9465,238.0543)"><path
             d="m 0,0 0,6.54 -29.413,0 0,6.027 29.413,0 0,14.216 -43.611,0 0,-34.454 29.037,0 0,-0.999 c -0.013,-3.456 -1.954,-5.028 -5.848,-5.028 l -23.184,0.018 0.016,-14.224 23.202,-0.014 c 5.674,-0.004 10.46,1.826 14.433,5.584 3.972,3.755 5.959,7.992 5.969,13.642 L 0,0 Z"
             style="fill:#cb2030;fill-opacity:1;fill-rule:nonzero;stroke:none"
             id="path3372"
             inkscape:connector-curvature="0" /></g></g></g></g></svg>