<?xml version="1.0" encoding="UTF-8"?>
<svg width="830px" height="266px" viewBox="0 0 830 266" version="1.1" xmlns="http://www.w3.org/2000/svg" xmlns:xlink="http://www.w3.org/1999/xlink">
    <!-- Generator: Sketch 50.2 (55047) - http://www.bohemiancoding.com/sketch -->
    <title>Styria Digital Services Logo</title>
    <desc>Created with Sketch.</desc>
    <defs></defs>
    <g id="Page-1" stroke="none" stroke-width="1" fill="none" fill-rule="evenodd">
        <g id="Styria_Digital_Services_Logo_RGB_paths" fill-rule="nonzero">
            <path d="M39.8,0.9 C14,34 0.1,76.2 0.1,127.1 C0.1,177.1 14.7,222.7 40.1,253.6 L58,239.5 C40.7,207.1 30.9,168.8 30.9,127.1 C30.9,86.2 40.2,47.9 57.9,15.2 L39.8,0.9 Z" id="Shape" fill="#2266AB"></path>
            <g id="Group" transform="translate(77.000000, 62.000000)" fill="#404040">
                <path d="M57,82.8 C58.3,84.1 59,86.1 59,88.8 C59,91.8 58.1,93.7 56.2,94.7 C54.3,95.7 50.5,96.2 44.8,96.2 C40.7,96.2 26.9,95.9 3.6,95.3 L1.7,118.1 C15.5,121.5 29.9,123.2 45,123.2 C62.5,123.2 74.5,120.7 81.2,115.7 C87.9,110.7 91.2,101.5 91.2,88.2 C91.2,79.3 89.3,72.1 85.4,66.6 C81.5,61.1 74.8,56.5 65.4,52.7 L43.7,44.3 C39.4,42.8 36.4,41.4 34.8,39.9 C33.2,38.5 32.4,36.5 32.4,33.8 C32.4,30.7 33.3,28.7 35.2,27.8 C37.1,26.9 40.8,26.4 46.2,26.4 C52.2,26.4 65.4,26.6 85.6,26.9 L87.7,5.9 C76.9,2.4 63.2,0.6 46.6,0.6 C29.4,0.6 17.4,2.9 10.7,7.5 C4,12.1 0.6,21 0.6,34.3 C0.6,43.1 2.5,50.2 6.4,55.6 C10.3,61 16.8,65.6 26.1,69.4 L49.7,78.8 C53.2,80.2 55.7,81.5 57,82.8" id="Shape"></path>
                <polygon id="Shape" points="198.7 2.9 105.8 2.9 105.8 27.7 136.1 27.7 136.1 120.9 168.2 120.9 168.2 27.7 198.7 27.7"></polygon>
                <path d="M315.4,2.9 L282.4,2.9 L266.4,42.8 C265.4,45.4 264.1,50.7 262.5,58.7 L260.4,58.7 C259.3,51.5 257.9,46.2 256.5,42.8 L240.5,2.9 L207.3,2.9 L245.4,83.3 L245.4,120.9 L277.6,120.9 L277.6,83.1 L315.4,2.9 Z" id="Shape"></path>
                <path d="M394.8,38.8 C394.8,44.4 393.7,48.2 391.6,50.1 C389.5,52 385.4,53 379.4,53 L364,53 L364,24.6 L379.4,24.6 C385.4,24.6 389.5,25.6 391.6,27.5 C393.7,29.5 394.8,33.2 394.8,38.8 M427.1,36.8 C427.1,23.5 423.5,14.2 416.3,9 C409.1,3.8 397,1.2 380,1.2 C359.4,1.2 343.4,1.8 332.3,2.9 L332.3,121 L364,121 L364,76.5 L378.5,76.5 C381.8,76.5 384.3,77.1 385.9,78.4 C387.6,79.7 388.8,82 389.6,85.4 L398,121 L431.7,121 L421.9,84.6 C419.7,74.1 413.7,68.1 403.8,66.5 L403.8,65.5 C419.3,63.6 427.1,54.1 427.1,36.8" id="Shape"></path>
                <rect id="Rectangle-path" x="459.9" y="2.9" width="31.8" height="118.1"></rect>
                <path d="M584.8,69.6 L560.5,69.6 L568,39.3 C568.8,35.4 569.6,31.3 570.4,27 L575,27 C575.2,29.3 576,33.4 577.2,39.3 L584.8,69.6 Z M630.7,120.9 L598.5,11.2 C597.8,8.7 596.5,6.7 594.5,5.1 C592.5,3.6 590.2,2.8 587.6,2.8 L557.8,2.8 C555.2,2.8 552.9,3.6 550.9,5.1 C548.9,6.6 547.6,8.7 547.1,11.2 L514.8,120.9 L547.7,120.9 L554.7,92.8 L591,92.8 L598,120.9 L630.7,120.9 Z" id="Shape"></path>
            </g>
            <g id="Group" transform="translate(212.000000, 212.000000)" fill="#2266AB">
                <path d="M0.5,51.9 L0.5,0.8 C7,0.4 13.1,0.1 18.9,0.1 C26.4,0.1 31.6,2 34.6,5.8 C37.6,9.6 39.1,16.4 39.1,26.3 C39.1,36.2 37.6,43 34.6,46.8 C31.6,50.6 26.4,52.5 18.9,52.5 C13.1,52.6 6.9,52.4 0.5,51.9 Z M7.9,6.7 L7.9,45.9 C11.1,46 14.7,46.1 18.9,46.1 C23.5,46.1 26.8,44.7 28.6,41.8 C30.4,38.9 31.3,33.8 31.3,26.3 C31.3,18.9 30.4,13.7 28.6,10.8 C26.8,7.9 23.6,6.5 18.9,6.5 C17.4,6.5 15.5,6.5 13,6.5 C10.6,6.7 8.9,6.7 7.9,6.7 Z" id="Shape"></path>
                <polygon id="Shape" points="58.9 51.9 51.5 51.9 51.5 0.8 58.9 0.8"></polygon>
                <path d="M108.7,22.5 L108.7,52 L103.2,52 L102.5,46.8 C98.2,50.9 93.2,52.9 87.3,52.9 C81.7,52.9 77.6,50.8 75.1,46.5 C72.6,42.2 71.3,35.4 71.3,26.2 C71.3,19.3 72,14 73.4,10.3 C74.8,6.5 77.1,3.9 80.1,2.3 C83.2,0.7 87.5,-2.84217094e-14 93,-2.84217094e-14 C98.3,-2.84217094e-14 103.1,0.5 107.2,1.6 L106.5,7.2 C102.4,6.8 98,6.6 93.5,6.6 C91.2,6.6 89.3,6.7 87.9,7 C86.5,7.3 85.1,7.8 83.9,8.6 C82.7,9.4 81.7,10.6 81.1,12.1 C80.5,13.6 80,15.6 79.7,17.9 C79.4,20.3 79.2,23.2 79.2,26.8 C79.2,34.2 80,39.3 81.5,42.2 C83,45.1 85.7,46.6 89.5,46.6 C93.1,46.6 97.1,45.1 101.6,42.1 L101.6,22.6 L108.7,22.6 L108.7,22.5 Z" id="Shape"></path>
                <polygon id="Shape" points="129 51.9 121.6 51.9 121.6 0.8 129 0.8"></polygon>
                <polygon id="Shape" points="178.6 7.4 162.4 7.4 162.4 51.9 154.9 51.9 154.9 7.4 138.8 7.4 138.8 0.8 178.5 0.8"></polygon>
                <path d="M215.4,36.5 L195.1,36.5 L190.4,51.9 L182.9,51.9 L198.9,2.8 C199.3,1.5 200.2,0.8 201.6,0.8 L209.1,0.8 C210.6,0.8 211.5,1.5 211.8,2.8 L227.9,51.9 L220.3,51.9 L215.4,36.5 Z M213.5,30.1 L207.5,10.7 C207.4,10.3 207.1,9.6 206.9,8.6 C206.6,7.7 206.4,7 206.3,6.5 L204.3,6.5 L203.1,10.6 L197.1,30 L213.5,30 L213.5,30.1 Z" id="Shape"></path>
                <path d="M243.8,0.9 L243.8,41 C243.8,42.7 244.1,43.9 244.8,44.7 C245.5,45.4 246.7,45.8 248.4,45.8 L266.5,45.8 L266.9,51.5 C262.1,51.9 255.6,52.2 247.2,52.2 C239.9,52.2 236.3,48.8 236.3,42.1 L236.3,1 L243.8,1 L243.8,0.9 Z" id="Shape"></path>
                <path d="M313,30.8 L302.6,27.9 C298.9,26.9 296.3,25.2 294.8,22.9 C293.2,20.6 292.5,17.4 292.5,13.4 C292.5,10.5 292.8,8.1 293.4,6.3 C294,4.5 295.1,3.1 296.6,2.2 C298.1,1.3 299.8,0.6 301.7,0.4 C303.6,0.1 306.1,0 309.2,0 C315.2,0 320.3,0.5 324.6,1.6 L324.2,7 C317,6.8 312.2,6.6 309.5,6.6 C305.7,6.6 303.1,7 301.8,7.7 C300.5,8.5 299.9,10.5 299.9,13.7 C299.9,16.2 300.4,18 301.3,19 C302.2,20 303.8,20.8 306.1,21.4 L316.2,24.2 C320,25.2 322.7,26.9 324.2,29.2 C325.8,31.5 326.5,34.7 326.5,38.7 C326.5,44.3 325.2,48.1 322.7,49.9 C320.1,51.8 315.6,52.7 309.2,52.7 C303.8,52.7 298.4,52.2 293.1,51.2 L293.6,45.7 C301.3,45.9 306.5,46.1 309.3,46.1 C313.1,46.1 315.7,45.6 317,44.6 C318.3,43.7 319,41.6 319,38.5 C319,35.9 318.6,34.1 317.7,33.1 C316.8,32.2 315.2,31.4 313,30.8 Z" id="Shape"></path>
                <path d="M369.7,45.8 L370.1,51.5 C365.6,51.9 358.3,52.1 348.2,52.1 C345,52.1 342.6,51.3 340.7,49.6 C338.9,47.9 337.9,45.7 337.9,42.9 L337.9,9.9 C337.9,7.1 338.9,4.9 340.7,3.2 C342.5,1.5 345,0.7 348.2,0.7 C358.3,0.7 365.6,0.9 370.1,1.3 L369.7,7.1 L349.4,7.1 C347.9,7.1 346.9,7.5 346.3,8.2 C345.7,8.9 345.4,10.1 345.4,11.9 L345.4,22 L366.9,22 L366.9,28 L345.4,28 L345.4,41 C345.4,42.7 345.7,43.9 346.3,44.7 C346.9,45.4 348,45.8 349.4,45.8 L369.7,45.8 Z" id="Shape"></path>
                <path d="M418.3,51.9 L410.4,51.9 L406,36 C404.9,32.6 402.8,30.9 399.6,30.9 L389.1,30.8 L389.1,51.9 L381.8,51.9 L381.8,0.8 C386,0.4 391.9,0.1 399.6,0.1 C405.8,0.1 410.1,1.2 412.7,3.3 C415.2,5.4 416.5,9.3 416.5,14.9 C416.5,19 415.8,22.1 414.3,24.1 C412.8,26.2 410.4,27.4 407.1,27.9 L407.1,28.3 C410.4,29.3 412.6,31.8 413.5,35.7 L418.3,51.9 Z M389.1,24.5 L399.5,24.5 C403.2,24.5 405.7,23.8 407,22.5 C408.4,21.2 409,18.9 409,15.4 C409,11.9 408.3,9.6 407,8.4 C405.6,7.2 403.1,6.5 399.5,6.5 C394.5,6.5 391,6.5 389.1,6.6 L389.1,24.5 Z" id="Shape"></path>
                <path d="M467.4,0.9 L452.3,49.9 C451.9,51.3 450.9,52 449.5,52 L442.2,52 C440.8,52 439.8,51.3 439.4,49.9 L424.3,0.9 L431.9,0.9 L443.4,40.6 C443.6,41.5 444.1,43.4 444.8,46.2 L446.8,46.2 C447.1,44.8 447.6,42.9 448.2,40.6 L459.7,0.9 L467.4,0.9 Z" id="Shape"></path>
                <polygon id="Shape" points="484 51.9 476.6 51.9 476.6 0.8 484 0.8"></polygon>
                <path d="M531.1,45.4 L531.8,51 C527.7,52.2 522.6,52.8 516.6,52.8 C509.1,52.8 503.9,50.8 500.9,46.9 C497.9,43 496.4,36.1 496.4,26.4 C496.4,16.7 497.9,9.9 500.9,5.9 C503.9,2 509.1,0 516.6,0 C521.9,0 526.6,0.5 530.7,1.5 L530,7.2 C526.1,6.8 521.6,6.6 516.6,6.6 C511.9,6.6 508.7,8 506.9,10.9 C505.1,13.8 504.2,18.9 504.2,26.4 C504.2,33.9 505.1,39.1 506.9,41.9 C508.7,44.8 511.9,46.2 516.6,46.2 C522.9,46.2 527.7,45.9 531.1,45.4 Z" id="Shape"></path>
                <path d="M573.8,45.8 L574.2,51.5 C569.7,51.9 562.4,52.1 552.3,52.1 C549.1,52.1 546.7,51.3 544.8,49.6 C543,47.9 542,45.7 542,42.9 L542,9.9 C542,7.1 543,4.9 544.8,3.2 C546.6,1.5 549.1,0.7 552.3,0.7 C562.4,0.7 569.7,0.9 574.2,1.3 L573.8,7.1 L553.5,7.1 C552,7.1 551,7.5 550.4,8.2 C549.8,8.9 549.5,10.1 549.5,11.9 L549.5,22 L571,22 L571,28 L549.5,28 L549.5,41 C549.5,42.7 549.8,43.9 550.4,44.7 C551,45.4 552.1,45.8 553.5,45.8 L573.8,45.8 Z" id="Shape"></path>
                <path d="M604.1,30.8 L593.7,27.9 C590,26.9 587.4,25.2 585.9,22.9 C584.3,20.6 583.6,17.4 583.6,13.4 C583.6,10.5 583.9,8.1 584.5,6.3 C585.1,4.5 586.2,3.1 587.7,2.2 C589.2,1.3 590.9,0.6 592.8,0.4 C594.7,0.1 597.2,0 600.3,0 C606.3,0 611.4,0.5 615.7,1.6 L615.3,7 C608.1,6.8 603.3,6.6 600.6,6.6 C596.8,6.6 594.2,7 592.9,7.7 C591.6,8.5 591,10.5 591,13.7 C591,16.2 591.5,18 592.4,19 C593.3,20 594.9,20.8 597.2,21.4 L607.3,24.2 C611.1,25.2 613.8,26.9 615.3,29.2 C616.9,31.5 617.6,34.7 617.6,38.7 C617.6,44.3 616.3,48.1 613.8,49.9 C611.2,51.8 606.7,52.7 600.3,52.7 C594.9,52.7 589.5,52.2 584.2,51.2 L584.7,45.7 C592.4,45.9 597.6,46.1 600.4,46.1 C604.2,46.1 606.8,45.6 608.1,44.6 C609.4,43.7 610.1,41.6 610.1,38.5 C610.1,35.9 609.7,34.1 608.8,33.1 C607.9,32.2 606.4,31.4 604.1,30.8 Z" id="Shape"></path>
            </g>
        </g>
    </g>
</svg>