<?xml version="1.0" encoding="UTF-8" standalone="no"?>
<svg
   xmlns:dc="http://purl.org/dc/elements/1.1/"
   xmlns:cc="http://creativecommons.org/ns#"
   xmlns:rdf="http://www.w3.org/1999/02/22-rdf-syntax-ns#"
   xmlns:svg="http://www.w3.org/2000/svg"
   xmlns="http://www.w3.org/2000/svg"
   viewBox="0 0 377.94666 188.97333"
   height="188.97333"
   width="377.94666"
   xml:space="preserve"
   id="svg29"
   version="1.1"><metadata
     id="metadata35"><rdf:RDF><cc:Work
         rdf:about=""><dc:format>image/svg+xml</dc:format><dc:type
           rdf:resource="http://purl.org/dc/dcmitype/StillImage" /><dc:title></dc:title></cc:Work></rdf:RDF></metadata><defs
     id="defs33"><clipPath
       id="clipPath45"
       clipPathUnits="userSpaceOnUse"><path
         id="path43"
         d="M 0,141.73 H 283.46 V 0 H 0 Z" /></clipPath></defs><g
     transform="matrix(1.3333333,0,0,-1.3333333,0,188.97333)"
     id="g37"><g
       id="g39"><g
         clip-path="url(#clipPath45)"
         id="g41"><g
           transform="translate(67.9553,89.0101)"
           id="g47"><path
             id="path49"
             style="fill:#0a233c;fill-opacity:1;fill-rule:nonzero;stroke:none"
             d="m 0,0 c 0,-11.584 -6.029,-17.023 -15.368,-17.023 -9.22,0 -15.247,5.675 -15.247,17.615 V 46.448 L -53.784,23.28 V 0.119 c 0,-25.889 14.776,-37.827 38.18,-37.827 23.524,0 38.773,11.821 38.773,38.417 V 46.573 H 0 Z m 178.521,16.312 c 0,-6.5 -5.083,-10.875 -13.122,-10.875 h -10.993 v 21.869 h 10.875 c 8.157,0 13.24,-3.664 13.24,-10.756 z m -11.467,30.261 h -35.58 v -82.382 l 22.932,22.931 v 0.348 h 11.466 c 20.45,0 35.462,10.284 35.462,29.907 v 0.236 c 0,18.204 -13.476,28.96 -34.28,28.96 m -127.381,0 V -36.172 H 62.605 V -4.729 46.573 Z M 92.038,15.604 H 82.937 L 62.605,-4.729 H 92.038 V -36.172 H 114.97 V 46.573 H 92.038 Z" /></g><g
           transform="translate(19.7739,26.4223)"
           id="g51"><path
             id="path53"
             style="fill:#00adef;fill-opacity:1;fill-rule:nonzero;stroke:none"
             d="m 0,0 v -17.579 h 5.204 c 5.616,0 9.201,3.808 9.201,8.726 v 0.062 C 14.405,-3.871 10.82,0 5.204,0 Z m -2.507,2.316 h 7.711 c 6.981,0 11.803,-4.791 11.803,-11.042 v -0.065 c 0,-6.249 -4.822,-11.105 -11.803,-11.105 h -7.711 z" /></g><path
           id="path55"
           style="fill:#00adef;fill-opacity:1;fill-rule:nonzero;stroke:none"
           d="m 62.644,28.739 h 2.507 V 6.527 h -2.507 z" /><g
           transform="translate(91.0139,17.5693)"
           id="g57"><path
             id="path59"
             style="fill:#00adef;fill-opacity:1;fill-rule:nonzero;stroke:none"
             d="m 0,0 v 0.063 c 0,6.092 4.474,11.487 11.137,11.487 3.744,0 6.059,-1.078 8.282,-2.95 L 17.801,6.696 C 16.088,8.186 14.182,9.233 11.039,9.233 6.123,9.233 2.602,5.077 2.602,0.127 V 0.063 c 0,-5.299 3.392,-9.234 8.789,-9.234 2.537,0 4.886,0.984 6.41,2.222 v 5.521 H 11.039 V 0.824 H 20.21 V -8.029 C 18.149,-9.868 15.04,-11.423 11.296,-11.423 4.315,-11.423 0,-6.346 0,0" /></g><path
           id="path61"
           style="fill:#00adef;fill-opacity:1;fill-rule:nonzero;stroke:none"
           d="m 137.435,28.739 h 2.507 V 6.527 h -2.507 z" /><g
           transform="translate(172.6614,26.4223)"
           id="g63"><path
             id="path65"
             style="fill:#00adef;fill-opacity:1;fill-rule:nonzero;stroke:none"
             d="M 0,0 H -7.458 V 2.316 H 9.995 V 0 H 2.538 V -19.896 H 0 Z" /></g><g
           transform="translate(219.2447,14.6819)"
           id="g67"><path
             id="path69"
             style="fill:#00adef;fill-opacity:1;fill-rule:nonzero;stroke:none"
             d="M 0,0 -5.045,11.296 -10.124,0 Z m -6.187,14.216 h 2.348 L 6.282,-8.155 H 3.585 l -2.602,5.871 h -12.09 l -2.632,-5.871 h -2.572 z" /></g><g
           transform="translate(250.2473,28.7386)"
           id="g71"><path
             id="path73"
             style="fill:#00adef;fill-opacity:1;fill-rule:nonzero;stroke:none"
             d="m 0,0 h 2.507 v -19.896 h 12.499 v -2.316 H 0 Z" /></g></g></g></g></svg>