<?xml version="1.0" encoding="UTF-8"?>
<!-- Created with Inkscape (http://www.inkscape.org/) -->
<svg width="170" height="50" version="1.1" viewBox="0 0 44.979 13.229" xmlns="http://www.w3.org/2000/svg" xmlns:cc="http://creativecommons.org/ns#" xmlns:dc="http://purl.org/dc/elements/1.1/" xmlns:rdf="http://www.w3.org/1999/02/22-rdf-syntax-ns#">
  <metadata>
    <rdf:RDF>
      <cc:Work rdf:about="">
        <dc:format>image/svg+xml</dc:format>
        <dc:type rdf:resource="http://purl.org/dc/dcmitype/StillImage"/>
        <dc:title/>
      </cc:Work>
    </rdf:RDF>
  </metadata>
  <g transform="translate(0 -283.77)">
    <g transform="matrix(.046677 0 0 .046677 .0035121 284.84)">
      <g fill="#071e38">
        <path d="m518.6 115.4c0 18.6-5.5 25.5-20.4 25.5s-20.4-6.9-20.4-25.5v-66.4h-26.8v74.2c0 28 16.3 42.7 47.2 42.7s47.2-14.8 47.2-42.7v-74.2h-26.8z"/>
        <polygon points="650.4 165.9 679.2 67 680.9 67 681 67.5 687.6 165.9 718.5 165.9 706 0.2 672.7 0.2 641.3 97.7 609.7 0.2 576.6 0.2 564.1 165.9 595 165.9 601.6 67 603.4 67 632.1 165.9"/>
        <polygon points="801.9 118.9 801.9 96.2 761.5 96.2 761.5 71.7 803.6 71.7 803.6 49 734.8 49 734.8 166.4 803.6 166.4 803.6 143.7 761.5 143.7 761.5 118.9"/>
        <path d="m857.5 49h-34.9v117.4h34.9c16.4 0 31.7-5.9 43.1-16.5 11.6-10.9 18.1-25.9 18.1-42.3-0.1-32.9-27-58.6-61.2-58.6zm-3.3 94.3h-4.9v-71.2h4.9c20.5 0 35.4 15 35.4 35.7-0.1 20.6-15 35.5-35.4 35.5z"/>
        <rect x="933.8" y="55.5" width="26.8" height="110.9"/>
        <polygon points="412.8 0.2 377 111.1 341.2 0.2 306.4 0.2 364.8 165.9 389.3 165.9 447.7 0.2"/>
      </g>
      <circle cx="947.2" cy="16.6" r="16.4" fill="#33d79d"/>
      <path d="m232.3 166.2c-11.7 3.3-23.9-3.7-27.2-15.5l-34.5-121.2c-3.3-11.9 3.6-24.3 15.3-27.6s23.9 3.7 27.2 15.5l34.5 121.2c3.3 11.9-3.6 24.3-15.3 27.6z" fill="#07a6ed" opacity=".2"/>
      <path d="m16.1 165.2c11.7 3.3 23.9-3.7 27.2-15.5l34.5-121.2c3.3-11.9-3.6-24.3-15.3-27.6-11.7-3.4-23.9 3.6-27.2 15.5l-34.5 121.2c-3.3 11.9 3.6 24.3 15.3 27.6z" fill="#07a6ed" opacity=".2"/>
      <path d="m202.6 3.6c-10.6-6-24.1-2.2-30 8.5l-47.8 86.8-49-87.5c-5.9-10.6-19.5-14.4-30-8.5-10.6 6-14.4 19.5-8.4 30.2l68.2 121.8c1.6 2.9 3.9 5.3 6.5 7.2 0.1 0.1 0.2 0.1 0.2 0.2l1.5 0.9c0.1 0.1 0.2 0.1 0.3 0.2s0.2 0.1 0.3 0.2l1.2 0.6c0.3 0.2 0.6 0.3 1 0.4 0.3 0.1 0.6 0.2 0.8 0.3 0.4 0.2 0.9 0.3 1.3 0.4 0.2 0.1 0.4 0.1 0.6 0.2l1.5 0.3c0.2 0 0.4 0.1 0.6 0.1 0.5 0.1 0.9 0.1 1.4 0.2 0.3 0 0.6 0 0.9 0.1h1.2 1.2c0.3 0 0.6 0 0.9-0.1 0.5 0 0.9-0.1 1.4-0.2 0.2 0 0.4-0.1 0.6-0.1l1.5-0.3c0.2-0.1 0.4-0.1 0.6-0.2 0.4-0.1 0.9-0.3 1.3-0.4 0.3-0.1 0.6-0.2 0.8-0.3 0.3-0.1 0.6-0.3 1-0.4l1.2-0.6c0.1-0.1 0.2-0.1 0.3-0.2s0.2-0.1 0.3-0.2l1.5-0.9c0.1-0.1 0.2-0.1 0.2-0.2 2.6-1.8 4.8-4.2 6.5-7.2l67-121c5.8-10.8 2-24.4-8.6-30.3z" fill="#33d79d"/>
    </g>
  </g>
</svg>
